HIERARCHY
ROOT joint_Root
{
	OFFSET 0.0 0.0 0.0
	CHANNELS 6 Xposition Yposition Zposition Zrotation Xrotation Yrotation 
	JOINT Hips
	{
		OFFSET -0.726466 93.3139 -2.00062
		CHANNELS 6 Xposition Yposition Zposition Zrotation Xrotation Yrotation 
		JOINT Spine
		{
			OFFSET 15.7357 0.0 0.0
			CHANNELS 6 Xposition Yposition Zposition Zrotation Xrotation Yrotation 
			JOINT Chest
			{
				OFFSET 8.98455 -0.406207 0.0
				CHANNELS 6 Xposition Yposition Zposition Zrotation Xrotation Yrotation 
				JOINT Neck
				{
					OFFSET 16.3773 0.0 0.0
					CHANNELS 6 Xposition Yposition Zposition Zrotation Xrotation Yrotation 
					JOINT Head
					{
						OFFSET 6.45672 0.0 0.0
						CHANNELS 6 Xposition Yposition Zposition Zrotation Xrotation Yrotation 
						End Site
						{
							OFFSET 0.0 0.0 0.0
						}
					}
				}
				JOINT Shoulder_L
				{
					OFFSET 12.9942 -0.242716 4.98039
					CHANNELS 6 Xposition Yposition Zposition Zrotation Xrotation Yrotation 
					JOINT UpperArm_L
					{
						OFFSET 5.34809 0.0 0.0
						CHANNELS 6 Xposition Yposition Zposition Zrotation Xrotation Yrotation 
						JOINT LowerArm_L
						{
							OFFSET 24.3286 1.87007e-05 0.0
							CHANNELS 6 Xposition Yposition Zposition Zrotation Xrotation Yrotation 
							JOINT Hand_L
							{
								OFFSET 22.2916 0.0 0.0
								CHANNELS 6 Xposition Yposition Zposition Zrotation Xrotation Yrotation 
								End Site
								{
									OFFSET 0.0 0.0 0.0
								}
							}
						}
					}
				}
				JOINT Shoulder_R
				{
					OFFSET 12.9945 -0.242716 -4.98039
					CHANNELS 6 Xposition Yposition Zposition Zrotation Xrotation Yrotation 
					JOINT UpperArm_R
					{
						OFFSET -5.34813 0.0 0.0
						CHANNELS 6 Xposition Yposition Zposition Zrotation Xrotation Yrotation 
						JOINT LowerArm_R
						{
							OFFSET -24.3289 0.000322201 0.0
							CHANNELS 6 Xposition Yposition Zposition Zrotation Xrotation Yrotation 
							JOINT Hand_R
							{
								OFFSET -22.2915 -0.000108084 0.0
								CHANNELS 6 Xposition Yposition Zposition Zrotation Xrotation Yrotation 
								End Site
								{
									OFFSET 0.0 0.0 0.0
								}
							}
						}
					}
				}
			}
		}
		JOINT UpperLeg_L
		{
			OFFSET -2.19248 -6.46944 0.0
			CHANNELS 6 Xposition Yposition Zposition Zrotation Xrotation Yrotation 
			JOINT LowerLeg_L
			{
				OFFSET 39.0811 0.0 -1.23785e-05
				CHANNELS 6 Xposition Yposition Zposition Zrotation Xrotation Yrotation 
				JOINT Foot_L
				{
					OFFSET 40.9854 0.0 -1.26872e-05
					CHANNELS 6 Xposition Yposition Zposition Zrotation Xrotation Yrotation 
					JOINT Toes_L
					{
						OFFSET 11.7543 0.0 0.0
						CHANNELS 6 Xposition Yposition Zposition Zrotation Xrotation Yrotation 
						End Site
						{
							OFFSET 0.0 0.0 0.0
						}
					}
				}
			}
		}
		JOINT UpperLeg_R
		{
			OFFSET -2.19251 6.46944 0.0
			CHANNELS 6 Xposition Yposition Zposition Zrotation Xrotation Yrotation 
			JOINT LowerLeg_R
			{
				OFFSET -39.0811 -0.00228153 -0.0401928
				CHANNELS 6 Xposition Yposition Zposition Zrotation Xrotation Yrotation 
				JOINT Foot_R
				{
					OFFSET -40.9854 0.0 0.0
					CHANNELS 6 Xposition Yposition Zposition Zrotation Xrotation Yrotation 
					JOINT Toes_R
					{
						OFFSET -11.7543 0.0 0.0
						CHANNELS 6 Xposition Yposition Zposition Zrotation Xrotation Yrotation 
						End Site
						{
							OFFSET 0.0 0.0 0.0
						}
					}
				}
			}
		}
	}
}
MOTION
Frames:	4
Frame Time:	0.0333333
0.000000 0.000000 0.000000 0.000000 0.000000 -0.000000 -0.339880 91.943900 462.775000 -82.032600 -8.021500 161.337000 15.735700 0.000005 -0.000001 68.326200 80.837300 -64.468300 8.984550 -0.406207 -0.000000 9.549500 -6.669410 8.274840 16.377300 -0.000001 -0.000001 2.639160 -1.897890 0.875266 6.456720 -0.000001 -0.000000 -4.746200 4.118320 -2.205070 12.994200 -0.242716 4.980390 -86.351600 -11.778200 -72.652500 5.348090 -0.000007 -0.000001 -50.509000 15.054400 -27.143100 24.328600 0.000019 0.000005 -4.402600 -0.480912 -83.777500 22.291600 -0.000001 0.000005 4.066060 5.611120 -12.030400 12.994500 -0.242716 -4.980390 93.169800 -6.342350 -63.374400 -5.348130 -0.000001 -0.000004 -69.032900 32.259400 16.464300 -24.328900 0.000322 -0.000009 -2.758090 -1.828140 -56.474900 -22.291500 -0.000108 -0.000004 5.423760 5.597260 -11.178800 -2.192480 -6.469440 -0.000000 -165.993000 -14.004200 -2.076630 39.081100 -0.000007 -0.000012 0.038618 -0.109519 19.423400 40.985400 -0.000006 -0.000013 -4.053430 6.708520 -43.237000 11.754300 -0.000000 0.000003 -0.164753 -0.583078 -41.333800 -2.192510 6.469440 -0.000001 -164.751000 10.270600 132.688000 -39.081100 -0.002282 -0.040193 0.009477 -0.005031 51.094200 -40.985400 0.000008 0.000006 -0.770170 -3.179260 -64.102000 -11.754300 -0.000006 -0.000006 -0.023207 -0.184445 -24.115400
0.000000 0.000000 0.000000 0.000000 0.000000 -0.000000 -0.626973 92.810100 456.092000 -83.413000 -7.062910 161.348000 15.735700 0.000005 -0.000001 68.385500 80.665400 -64.710200 8.984550 -0.406207 -0.000000 9.870680 -6.768050 7.937490 16.377300 -0.000001 -0.000001 3.412440 -1.778280 1.031300 6.456720 -0.000001 -0.000000 -5.814510 4.438350 -2.703770 12.994200 -0.242716 4.980390 -86.391300 -11.728500 -72.763300 5.348090 -0.000007 -0.000001 -54.158300 16.672900 -24.170800 24.328600 0.000019 0.000005 -5.004060 -0.508624 -84.210800 22.291600 -0.000001 0.000005 4.269660 5.605640 -11.686800 12.994500 -0.242716 -4.980390 93.117500 -6.292130 -63.575000 -5.348130 -0.000001 -0.000004 -70.241100 31.128900 16.320600 -24.328900 0.000322 -0.000009 -2.500040 -1.554270 -58.138000 -22.291500 -0.000108 -0.000004 5.307500 5.587760 -10.636400 -2.192480 -6.469440 -0.000000 -166.229000 -12.941300 0.720874 39.081100 -0.000007 -0.000012 0.049027 -0.148253 18.299100 40.985400 -0.000006 -0.000013 -5.248220 7.294940 -33.682100 11.754300 -0.000000 0.000003 -0.023768 -0.187341 -24.238800 -2.192510 6.469440 -0.000001 -163.585000 12.494100 135.002000 -39.081100 -0.002282 -0.040193 -0.011822 0.021085 35.628500 -40.985400 0.000008 0.000006 -3.511130 0.318792 -65.861000 -11.754300 -0.000006 -0.000006 -0.024364 -0.190360 -24.359700
0.000000 0.000000 0.000000 0.000000 0.000000 -0.000000 -1.076810 92.331500 448.977000 -85.286500 -5.978930 162.166000 15.735700 0.000005 -0.000001 67.889200 80.351400 -64.624300 8.984550 -0.406207 -0.000000 10.384900 -7.141010 7.182350 16.377300 -0.000001 -0.000001 4.055990 -1.478300 0.841576 6.456720 -0.000001 -0.000000 -6.274420 4.711880 -2.821570 12.994200 -0.242716 4.980390 -86.405100 -11.430300 -72.410200 5.348090 -0.000007 -0.000001 -58.207900 18.837900 -20.227200 24.328600 0.000019 0.000005 -4.239380 -0.454022 -83.897400 22.291600 -0.000001 0.000005 4.126100 5.602290 -11.479000 12.994500 -0.242716 -4.980390 92.538600 -5.195010 -63.911100 -5.348130 -0.000001 -0.000004 -69.597400 31.650200 14.732300 -24.328900 0.000322 -0.000009 -2.620800 -1.519100 -59.908400 -22.291500 -0.000108 -0.000004 6.281010 5.587030 -10.593300 -2.192480 -6.469440 -0.000000 -168.354000 -7.780930 2.563100 39.081100 -0.000007 -0.000012 0.040598 -0.095063 23.125600 40.985400 -0.000006 -0.000013 -4.164410 1.599380 -32.722500 11.754300 -0.000000 0.000003 -0.002479 -0.034560 -17.982200 -2.192510 6.469440 -0.000001 -162.025000 16.498300 136.869000 -39.081100 -0.002282 -0.040193 -0.021434 0.052492 25.240100 -40.985400 0.000008 0.000006 -6.666950 3.007470 -66.343500 -11.754300 -0.000006 -0.000006 -0.025011 -0.193615 -24.494300
0.000000 0.000000 0.000000 0.000000 0.000000 -0.000000 -1.464110 90.746200 441.495000 -87.317900 -5.216150 163.440000 15.735700 0.000005 -0.000001 68.692600 80.060100 -65.943300 8.984550 -0.406207 -0.000000 10.994300 -7.093620 6.185110 16.377300 -0.000001 -0.000001 4.554550 -1.846670 0.458589 6.456720 -0.000001 -0.000000 -6.538290 4.317660 -2.505380 12.994200 -0.242716 4.980390 -86.663200 -10.587400 -72.394100 5.348090 -0.000007 -0.000001 -61.638300 21.390900 -16.306700 24.328600 0.000019 0.000005 -3.618190 -0.515334 -81.901000 22.291600 -0.000001 0.000005 3.510980 5.599690 -11.323000 12.994500 -0.242716 -4.980390 91.550700 -3.204060 -64.157600 -5.348130 -0.000001 -0.000004 -68.354700 31.721600 12.135600 -24.328900 0.000322 -0.000009 -3.430910 -1.920360 -60.786600 -22.291500 -0.000108 -0.000004 8.324160 5.599750 -11.317200 -2.192480 -6.469440 -0.000000 -172.208000 -0.584590 2.883850 39.081100 -0.000007 -0.000012 0.001296 -0.001937 33.771800 40.985400 -0.000006 -0.000013 -2.681070 -3.596880 -36.114300 11.754300 -0.000000 0.000003 -0.006369 -0.074164 -19.595500 -2.192510 6.469440 -0.000001 -161.509000 19.966800 137.354000 -39.081100 -0.002282 -0.040193 -0.030344 0.072567 24.881900 -40.985400 0.000008 0.000006 -7.401990 3.373120 -68.159800 -11.754300 -0.000006 -0.000006 -0.026006 -0.198535 -24.697800
